<svg xmlns="http://www.w3.org/2000/svg" viewBox="0 0 1280 720" fill="none" role="img" aria-label="MORES HV consolidated dashboard preview">
  <defs>
    <linearGradient id="bg" x1="0" y1="0" x2="1" y2="1">
      <stop offset="0" stop-color="#0d1115"/><stop offset="1" stop-color="#0a0d0f"/>
    </linearGradient>
    <linearGradient id="bar" x1="0" y1="1" x2="0" y2="0">
      <stop offset="0" stop-color="#00a2b6" stop-opacity=".25"/><stop offset="1" stop-color="#00bcd2"/>
    </linearGradient>
    <linearGradient id="glow" x1="0" y1="0" x2="1" y2="1">
      <stop offset="0" stop-color="#00a2b6" stop-opacity=".18"/><stop offset="1" stop-color="#00a2b6" stop-opacity="0"/>
    </linearGradient>
  </defs>
  <rect width="1280" height="720" fill="url(#bg)"/>
  <rect width="1280" height="720" fill="url(#glow)"/>
  <!-- sidebar -->
  <rect x="0" y="0" width="210" height="720" fill="#12161b"/>
  <rect x="28" y="34" width="120" height="16" rx="4" fill="#00bcd2"/>
  <g fill="#2a323b">
    <rect x="28" y="96" width="154" height="11" rx="5"/><rect x="28" y="132" width="130" height="11" rx="5"/>
    <rect x="28" y="168" width="150" height="11" rx="5"/><rect x="28" y="204" width="112" height="11" rx="5"/>
    <rect x="28" y="240" width="140" height="11" rx="5"/><rect x="28" y="276" width="120" height="11" rx="5"/>
  </g>
  <rect x="20" y="122" width="170" height="34" rx="8" fill="#00a2b6" fill-opacity=".14"/>
  <rect x="28" y="132" width="130" height="11" rx="5" fill="#33c2d2"/>
  <!-- topbar -->
  <rect x="210" y="0" width="1070" height="70" fill="#0f1318"/>
  <rect x="244" y="28" width="230" height="15" rx="5" fill="#e6ebef"/>
  <circle cx="1230" cy="35" r="16" fill="#1b2129"/>
  <rect x="1150" y="26" width="52" height="18" rx="9" fill="#00a2b6" fill-opacity=".2"/>
  <!-- KPI cards -->
  <g>
    <rect x="244" y="104" width="236" height="120" rx="14" fill="#141a20" stroke="#1f2731"/>
    <rect x="268" y="128" width="90" height="10" rx="5" fill="#5b6672"/>
    <rect x="268" y="150" width="150" height="24" rx="6" fill="#eef2f5"/>
    <rect x="268" y="190" width="60" height="10" rx="5" fill="#2fd584"/>
  </g>
  <g>
    <rect x="500" y="104" width="236" height="120" rx="14" fill="#141a20" stroke="#1f2731"/>
    <rect x="524" y="128" width="90" height="10" rx="5" fill="#5b6672"/>
    <rect x="524" y="150" width="130" height="24" rx="6" fill="#eef2f5"/>
    <rect x="524" y="190" width="72" height="10" rx="5" fill="#33c2d2"/>
  </g>
  <g>
    <rect x="756" y="104" width="236" height="120" rx="14" fill="#141a20" stroke="#1f2731"/>
    <rect x="780" y="128" width="90" height="10" rx="5" fill="#5b6672"/>
    <rect x="780" y="150" width="140" height="24" rx="6" fill="#eef2f5"/>
    <rect x="780" y="190" width="54" height="10" rx="5" fill="#2fd584"/>
  </g>
  <g>
    <rect x="1012" y="104" width="236" height="120" rx="14" fill="#141a20" stroke="#1f2731"/>
    <rect x="1036" y="128" width="90" height="10" rx="5" fill="#5b6672"/>
    <rect x="1036" y="150" width="120" height="24" rx="6" fill="#eef2f5"/>
    <rect x="1036" y="190" width="66" height="10" rx="5" fill="#ff9d6b"/>
  </g>
  <!-- chart panel -->
  <rect x="244" y="248" width="620" height="360" rx="14" fill="#141a20" stroke="#1f2731"/>
  <rect x="268" y="276" width="180" height="13" rx="5" fill="#c2c8cd"/>
  <g fill="url(#bar)">
    <rect x="288" y="430" width="46" height="128" rx="5"/>
    <rect x="360" y="392" width="46" height="166" rx="5"/>
    <rect x="432" y="446" width="46" height="112" rx="5"/>
    <rect x="504" y="352" width="46" height="206" rx="5"/>
    <rect x="576" y="404" width="46" height="154" rx="5"/>
    <rect x="648" y="330" width="46" height="228" rx="5"/>
    <rect x="720" y="300" width="46" height="258" rx="5"/>
  </g>
  <polyline points="311,470 383,432 455,486 527,392 599,444 671,370 743,340"
            fill="none" stroke="#00bcd2" stroke-width="4" stroke-linecap="round" stroke-linejoin="round"/>
  <!-- side list panel -->
  <rect x="884" y="248" width="364" height="360" rx="14" fill="#141a20" stroke="#1f2731"/>
  <rect x="908" y="276" width="150" height="13" rx="5" fill="#c2c8cd"/>
  <g>
    <rect x="908" y="316" width="316" height="52" rx="8" fill="#0f151b"/>
    <rect x="908" y="380" width="316" height="52" rx="8" fill="#0f151b"/>
    <rect x="908" y="444" width="316" height="52" rx="8" fill="#0f151b"/>
    <rect x="908" y="508" width="316" height="52" rx="8" fill="#0f151b"/>
  </g>
  <g fill="#00a2b6" fill-opacity=".9">
    <circle cx="932" cy="342" r="7"/><circle cx="932" cy="406" r="7"/>
    <circle cx="932" cy="470" r="7"/><circle cx="932" cy="534" r="7"/>
  </g>
  <g fill="#3a434d">
    <rect x="952" y="337" width="150" height="10" rx="5"/><rect x="952" y="401" width="120" height="10" rx="5"/>
    <rect x="952" y="465" width="164" height="10" rx="5"/><rect x="952" y="529" width="110" height="10" rx="5"/>
  </g>
  <g fill="#eef2f5">
    <rect x="1150" y="335" width="54" height="14" rx="4"/><rect x="1150" y="399" width="54" height="14" rx="4"/>
    <rect x="1150" y="463" width="54" height="14" rx="4"/><rect x="1150" y="527" width="54" height="14" rx="4"/>
  </g>
</svg>
